#Comment line ignore any data following # character 
#Hierarchical Translation and Rotation (.htr) file 
[Header]	
#Header keywords are followed by a single value 
FileType HTR		#Single word string
DataType HTRS		#Translation followed by rotation and scale data
FileVersion 1		#integer
NumSegments 64		#integer
NumFrames 3		#integer
DataFrameRate 30		#integer, data frame rate in this file
EulerRotationOrder ZYX
CalibrationUnits mm
RotationUnits Degrees
GlobalAxisofGravity Y
BoneLengthAxis Y
ScaleFactor 1.00
[SegmentNames&Hierarchy]
#CHILD	PARENT
Pinger_Root GLOBAL
Pelvis Pinger_Root
L_Hip Pelvis
R_Hip Pelvis
Rear_Leg01 Pelvis
Spine1 Pelvis
L_Leg01 L_Hip
L_Leg02 L_Leg01
L_Leg03 L_Leg02
L_Foot L_Leg03
L_Toe1_01 L_Foot
L_Toe2_01 L_Foot
L_Toe3_01 L_Foot
planeAlignerLeft L_Foot
L_Toe1_02 L_Toe1_01
L_Toe1_03 L_Toe1_02
L_Toe2_02 L_Toe2_01
L_Toe2_03 L_Toe2_02
L_Toe3_02 L_Toe3_01
L_Toe3_03 L_Toe3_02
planeLockWeightLeft planeAlignerLeft
R_Leg01 R_Hip
R_Leg02 R_Leg01
R_Leg03 R_Leg02
R_Foot R_Leg03
planeAlignerRight R_Foot
R_Toe1_01 R_Foot
R_Toe2_01 R_Foot
R_Toe3_01 R_Foot
planeLockWeightRight planeAlignerRight
R_Toe1_02 R_Toe1_01
R_Toe1_03 R_Toe1_02
R_Toe2_02 R_Toe2_01
R_Toe2_03 R_Toe2_02
R_Toe3_02 R_Toe3_01
R_Toe3_03 R_Toe3_02
Rear_Leg02 Rear_Leg01
Rear_Leg03 Rear_Leg02
Rear_Leg04 Rear_Leg03
Rear_Foot Rear_Leg04
planeAlignerCenter Rear_Foot
Rear_Toe1_01 Rear_Foot
Rear_Toe2_01 Rear_Foot
Rear_Toe3_01 Rear_Foot
planeLockWeightCenter planeAlignerCenter
Rear_Toe1_02 Rear_Toe1_01
Rear_Toe1_03 Rear_Toe1_02
Rear_Toe2_02 Rear_Toe2_01
Rear_Toe2_03 Rear_Toe2_02
Rear_Toe3_02 Rear_Toe3_01
Rear_Toe3_03 Rear_Toe3_02
Back_Bone Spine1
Head Spine1
Motor_Bone Back_Bone
Ping_Mechanism Back_Bone
BN_LookIK Head
bottomMouth Head
L_Mouth01 Head
L_mouthFront Head
mouthGun Head
R_Mouth01 Head
R_mouthFront Head
TopMouth Head
weapon_bone Head
[BasePosition]
#SegmentName Tx, Ty, Tz, Rx, Ry, Rz, BoneLength
Pinger_Root 0.000000 0.000000 0.000000 -90.000000 0.000000 0.000000 10.000000 
Pelvis 0.000000 0.000000 0.000000 0.000000 0.000000 0.000000 10.000000 
L_Hip 0.000000 0.000000 0.000000 0.000000 0.000000 0.000000 10.000000 
R_Hip 0.000000 0.000000 0.000000 0.000000 0.000000 0.000000 10.000000 
Rear_Leg01 0.000000 0.000000 0.000000 0.000000 0.000000 0.000000 10.000000 
Spine1 0.000000 0.000000 0.000000 0.000000 0.000000 0.000000 10.000000 
L_Leg01 0.000000 0.000000 0.000000 0.000000 0.000000 0.000000 10.000000 
L_Leg02 0.000000 0.000000 0.000000 0.000000 0.000000 0.000000 10.000000 
L_Leg03 0.000000 0.000000 0.000000 0.000000 0.000000 0.000000 10.000000 
L_Foot 0.000000 0.000000 0.000000 0.000000 0.000000 0.000000 10.000000 
L_Toe1_01 0.000000 0.000000 0.000000 0.000000 0.000000 0.000000 10.000000 
L_Toe2_01 0.000000 0.000000 0.000000 0.000000 0.000000 0.000000 10.000000 
L_Toe3_01 0.000000 0.000000 0.000000 0.000000 0.000000 0.000000 10.000000 
planeAlignerLeft 0.000000 0.000000 0.000000 0.000000 0.000000 0.000000 10.000000 
L_Toe1_02 0.000000 0.000000 0.000000 0.000000 0.000000 0.000000 10.000000 
L_Toe1_03 0.000000 0.000000 0.000000 0.000000 0.000000 0.000000 10.000000 
L_Toe2_02 0.000000 0.000000 0.000000 0.000000 0.000000 0.000000 10.000000 
L_Toe2_03 0.000000 0.000000 0.000000 0.000000 0.000000 0.000000 10.000000 
L_Toe3_02 0.000000 0.000000 0.000000 0.000000 0.000000 0.000000 10.000000 
L_Toe3_03 0.000000 0.000000 0.000000 0.000000 0.000000 0.000000 10.000000 
planeLockWeightLeft 0.000000 0.000000 0.000000 0.000000 0.000000 0.000000 10.000000 
R_Leg01 0.000000 0.000000 0.000000 0.000000 0.000000 0.000000 10.000000 
R_Leg02 0.000000 0.000000 0.000000 0.000000 0.000000 0.000000 10.000000 
R_Leg03 0.000000 0.000000 0.000000 0.000000 0.000000 0.000000 10.000000 
R_Foot 0.000000 0.000000 0.000000 0.000000 0.000000 0.000000 10.000000 
planeAlignerRight 0.000000 0.000000 0.000000 0.000000 0.000000 0.000000 10.000000 
R_Toe1_01 0.000000 0.000000 0.000000 0.000000 0.000000 0.000000 10.000000 
R_Toe2_01 0.000000 0.000000 0.000000 0.000000 0.000000 0.000000 10.000000 
R_Toe3_01 0.000000 0.000000 0.000000 0.000000 0.000000 0.000000 10.000000 
planeLockWeightRight 0.000000 0.000000 0.000000 0.000000 0.000000 0.000000 10.000000 
R_Toe1_02 0.000000 0.000000 0.000000 0.000000 0.000000 0.000000 10.000000 
R_Toe1_03 0.000000 0.000000 0.000000 0.000000 0.000000 0.000000 10.000000 
R_Toe2_02 0.000000 0.000000 0.000000 0.000000 0.000000 0.000000 10.000000 
R_Toe2_03 0.000000 0.000000 0.000000 0.000000 0.000000 0.000000 10.000000 
R_Toe3_02 0.000000 0.000000 0.000000 0.000000 0.000000 0.000000 10.000000 
R_Toe3_03 0.000000 0.000000 0.000000 0.000000 0.000000 0.000000 10.000000 
Rear_Leg02 0.000000 0.000000 0.000000 0.000000 0.000000 0.000000 10.000000 
Rear_Leg03 0.000000 0.000000 0.000000 0.000000 0.000000 0.000000 10.000000 
Rear_Leg04 0.000000 0.000000 0.000000 0.000000 0.000000 0.000000 10.000000 
Rear_Foot 0.000000 0.000000 0.000000 0.000000 0.000000 0.000000 10.000000 
planeAlignerCenter 0.000000 0.000000 0.000000 0.000000 0.000000 0.000000 10.000000 
Rear_Toe1_01 0.000000 0.000000 0.000000 0.000000 0.000000 0.000000 10.000000 
Rear_Toe2_01 0.000000 0.000000 0.000000 0.000000 0.000000 0.000000 10.000000 
Rear_Toe3_01 0.000000 0.000000 0.000000 0.000000 0.000000 0.000000 10.000000 
planeLockWeightCenter 0.000000 0.000000 0.000000 0.000000 0.000000 0.000000 10.000000 
Rear_Toe1_02 0.000000 0.000000 0.000000 0.000000 0.000000 0.000000 10.000000 
Rear_Toe1_03 0.000000 0.000000 0.000000 0.000000 0.000000 0.000000 10.000000 
Rear_Toe2_02 0.000000 0.000000 0.000000 0.000000 0.000000 0.000000 10.000000 
Rear_Toe2_03 0.000000 0.000000 0.000000 0.000000 0.000000 0.000000 10.000000 
Rear_Toe3_02 0.000000 0.000000 0.000000 0.000000 0.000000 0.000000 10.000000 
Rear_Toe3_03 0.000000 0.000000 0.000000 0.000000 0.000000 0.000000 10.000000 
Back_Bone 0.000000 0.000000 0.000000 0.000000 0.000000 0.000000 10.000000 
Head 0.000000 0.000000 0.000000 0.000000 0.000000 0.000000 10.000000 
Motor_Bone 0.000000 0.000000 0.000000 0.000000 0.000000 0.000000 10.000000 
Ping_Mechanism 0.000000 0.000000 0.000000 0.000000 0.000000 0.000000 10.000000 
BN_LookIK 0.000000 0.000000 0.000000 0.000000 0.000000 0.000000 10.000000 
bottomMouth 0.000000 0.000000 0.000000 0.000000 0.000000 0.000000 10.000000 
L_Mouth01 0.000000 0.000000 0.000000 0.000000 0.000000 0.000000 10.000000 
L_mouthFront 0.000000 0.000000 0.000000 0.000000 0.000000 0.000000 10.000000 
mouthGun 0.000000 0.000000 0.000000 0.000000 0.000000 0.000000 10.000000 
R_Mouth01 0.000000 0.000000 0.000000 0.000000 0.000000 0.000000 10.000000 
R_mouthFront 0.000000 0.000000 0.000000 0.000000 0.000000 0.000000 10.000000 
TopMouth 0.000000 0.000000 0.000000 0.000000 0.000000 0.000000 10.000000 
weapon_bone 0.000000 0.000000 0.000000 0.000000 0.000000 0.000000 10.000000 
#Beginning of Data. Separated by tabs
#Fr	Tx	Ty	Tz	Rx	Ry	Rz	SF
[Pinger_Root]
87 0.000000 0.000000 0.000000 -0.000075 -0.000000 -0.000020 0.000000
88 0.000000 0.000000 0.000000 -0.000075 -0.000000 -0.000020 0.000000
89 0.000000 0.000000 0.000000 -0.000075 -0.000000 -0.000020 0.000000
[Pelvis]
87 374.528290 1962.863647 4834.740723 15.059234 -85.184769 -7.310157 5231.426270
88 405.149506 2008.128906 4815.442871 11.120131 -85.190590 -3.421911 5233.088867
89 438.812134 2054.289551 4796.305664 7.189727 -85.174034 0.457643 5236.144531
[L_Hip]
87 5.766392 125.831482 872.656799 -178.253311 -81.787758 87.381340 881.701050
88 5.766392 125.831482 872.656799 -178.253311 -81.787758 87.381340 881.701050
89 5.766392 125.831482 872.656799 -178.253311 -81.787758 87.381340 881.701050
[R_Hip]
87 5.765438 125.836372 -872.654907 -1.729420 81.784348 87.372032 881.699829
88 5.765438 125.836372 -872.654907 -1.729232 81.784348 87.371948 881.699829
89 5.765438 125.836372 -872.654907 -1.728995 81.784248 87.371773 881.699829
[Rear_Leg01]
87 -192.298416 -925.602966 -0.001907 151.665024 13.915377 -135.263474 945.367432
88 -192.298416 -925.602966 -0.001907 151.121094 14.020320 -135.839233 945.367432
89 -192.298416 -925.602966 -0.001907 150.575851 14.119954 -136.416290 945.367432
[Spine1]
87 290.604584 5.007505 0.000477 3.615584 -2.864928 17.751694 290.647736
88 290.604584 5.007505 0.000477 3.734434 -2.934381 17.280180 290.647736
89 290.604584 5.007505 0.000477 3.853868 -3.002861 16.808447 290.647736
[L_Leg01]
87 761.932007 -0.002384 -0.069261 126.325905 -18.295273 -103.330658 761.932068
88 761.932007 -0.002384 -0.069261 126.041306 -17.674219 -102.541855 761.932068
89 761.932007 -0.002384 -0.069261 125.766663 -17.049520 -101.758972 761.932068
[L_Leg02]
87 1441.140503 -0.000954 -0.000715 -0.982112 0.325753 -109.662781 1441.140503
88 1441.140503 -0.000954 -0.000715 -0.916043 0.295653 -109.712357 1441.140503
89 1441.140503 -0.000954 -0.000715 -0.849948 0.265611 -109.761963 1441.140503
[L_Leg03]
87 1686.963989 -0.000715 -0.000954 0.021089 -0.004008 104.722755 1686.963989
88 1686.963989 -0.000715 -0.000954 0.018625 -0.003166 105.434921 1686.963989
89 1686.963989 -0.000715 -0.000954 0.016172 -0.002294 106.146820 1686.963989
[L_Foot]
87 3041.570068 -30.715107 11.297464 10.714980 15.890729 83.585197 3041.746094
88 3041.570068 -30.715107 11.297464 10.716063 15.814585 84.202888 3041.746094
89 3041.570068 -30.715107 11.297464 10.716295 15.738433 84.820343 3041.746094
[L_Toe1_01]
87 -188.216690 -224.732346 -21.137953 103.312706 -4.064553 -176.748749 293.899567
88 -188.216690 -224.732346 -21.137953 103.314156 -3.992974 -176.855942 293.899567
89 -188.216690 -224.732346 -21.137953 103.315468 -3.921391 -176.963120 293.899567
[L_Toe2_01]
87 200.746536 -219.926590 148.838394 -86.889458 -21.368757 -53.220867 332.896027
88 200.746536 -219.926590 148.838394 -86.933578 -21.300322 -53.171173 332.896027
89 200.746536 -219.926590 148.838394 -86.977623 -21.231859 -53.121567 332.896027
[L_Toe3_01]
87 188.832520 -219.859131 -191.078659 -116.175766 7.820214 -67.609489 347.140900
88 188.832520 -219.859131 -191.078659 -116.174950 7.797239 -67.593758 347.140900
89 188.832520 -219.859131 -191.078659 -116.174141 7.774267 -67.578026 347.140900
[planeAlignerLeft]
87 0.812531 -811.448792 -0.314951 0.000000 -90.000000 -90.001900 811.449280
88 0.812531 -811.448792 -0.314951 0.000000 -90.000000 -90.001900 811.449280
89 0.812531 -811.448792 -0.314951 0.000000 -90.000000 -90.001900 811.449280
[L_Toe1_02]
87 413.761139 0.000477 0.000000 0.001403 -23.602262 0.001403 413.761139
88 413.761139 0.000477 0.000000 0.001403 -23.508673 0.001403 413.761139
89 413.761139 0.000477 0.000000 0.001404 -23.415071 0.001404 413.761139
[L_Toe1_03]
87 464.317322 0.000358 -0.000089 0.009329 75.542809 0.009329 464.317322
88 464.317322 0.000358 -0.000089 0.009600 75.952888 0.009600 464.317322
89 464.317322 0.000358 -0.000089 0.009888 76.362991 0.009888 464.317322
[L_Toe2_02]
87 342.235809 -0.000477 0.000238 -0.002393 -62.209595 -0.002393 342.235809
88 342.235809 -0.000477 0.000238 -0.002395 -61.951973 -0.002395 342.235809
89 342.235809 -0.000477 0.000238 -0.002396 -61.694332 -0.002396 342.235809
[L_Toe2_03]
87 420.210846 -0.000715 0.000000 -0.000826 64.632034 -0.004410 420.210846
88 420.210846 -0.000715 0.000000 -0.000779 64.177834 -0.004367 420.210846
89 420.210846 -0.000715 0.000000 -0.000733 63.723671 -0.004325 420.210846
[L_Toe3_02]
87 329.270111 0.000954 0.000000 0.001186 -73.732697 0.001186 329.270111
88 329.270111 0.000954 0.000000 0.001186 -73.535225 0.001186 329.270111
89 329.270111 0.000954 0.000000 0.001186 -73.337715 0.001186 329.270111
[L_Toe3_03]
87 439.137451 -0.001907 0.000954 0.015875 81.519814 0.015875 439.137451
88 439.137451 -0.001907 0.000954 0.015102 81.084602 0.015102 439.137451
89 439.137451 -0.001907 0.000954 0.014401 80.649345 0.014401 439.137451
[planeLockWeightLeft]
87 -0.000954 0.000238 -0.000305 -0.011826 -0.004376 0.005620 0.001029
88 -0.000954 0.000238 -0.000305 -0.011826 -0.004376 0.005620 0.001029
89 -0.000954 0.000238 -0.000305 -0.011826 -0.004376 0.005620 0.001029
[R_Leg01]
87 761.455627 -0.001907 -0.000358 96.787354 2.550812 70.098183 761.455688
88 761.455627 -0.001907 -0.000358 97.109077 2.669839 70.310928 761.455688
89 761.455627 -0.001907 -0.000358 97.431252 2.787685 70.524368 761.455688
[R_Leg02]
87 1441.140625 0.000000 -0.000238 0.165306 -0.062636 -99.269379 1441.140625
88 1441.140625 0.000000 -0.000238 0.186918 -0.081571 -99.501312 1441.140625
89 1441.140625 0.000000 -0.000238 0.208607 -0.100417 -99.733238 1441.140625
[R_Leg03]
87 1686.963989 0.000954 0.001431 -0.118117 0.008588 77.904480 1686.963989
88 1686.963989 0.000954 0.001431 -0.118109 0.008689 78.002113 1686.963989
89 1686.963989 0.000954 0.001431 -0.118102 0.008789 78.099724 1686.963989
[R_Foot]
87 3041.560059 -30.531288 -11.204481 44.358154 -66.969200 67.040504 3041.734131
88 3041.560059 -30.531288 -11.204481 43.559692 -66.956131 68.406906 3041.734131
89 3041.560059 -30.531288 -11.204481 42.762867 -66.935593 69.771614 3041.734131
[planeAlignerRight]
87 -0.635147 -812.270569 -0.364304 0.000000 -89.960434 -90.005180 812.270874
88 -0.635147 -812.270569 -0.364304 0.000000 -89.960434 -90.005180 812.270874
89 -0.635147 -812.270569 -0.364304 0.000000 -89.960434 -90.005180 812.270874
[R_Toe1_01]
87 -188.383347 -224.864899 21.052242 90.235199 4.561330 -160.237244 294.101532
88 -188.383347 -224.864899 21.052242 90.211769 4.674874 -160.264648 294.101532
89 -188.383347 -224.864899 21.052242 90.203255 4.713870 -160.272766 294.101532
[R_Toe2_01]
87 200.637817 -220.002121 -148.787384 -103.967865 13.429006 -50.807396 332.857574
88 200.637817 -220.002121 -148.787384 -103.995216 13.499640 -50.829468 332.857574
89 200.637817 -220.002121 -148.787384 -104.022598 13.570269 -50.851574 332.857574
[R_Toe3_01]
87 188.606735 -220.092957 191.126343 -73.801331 -11.064619 -51.164043 347.192566
88 188.606735 -220.092957 191.126343 -73.844772 -10.934672 -51.131855 347.192566
89 188.606735 -220.092957 191.126343 -73.859795 -10.890093 -51.121700 347.192566
[planeLockWeightRight]
87 -0.000477 0.000000 0.000000 -0.011823 -0.004379 -0.000027 0.000477
88 -0.000477 0.000000 0.000000 -0.011823 -0.004379 -0.000027 0.000477
89 -0.000477 0.000000 0.000000 -0.011823 -0.004379 -0.000027 0.000477
[R_Toe1_02]
87 413.762085 0.000477 -0.000119 0.001409 -22.759851 0.001409 413.762085
88 413.762085 0.000477 -0.000119 0.001409 -22.755314 0.001409 413.762085
89 413.762085 0.000477 -0.000119 0.001409 -22.750774 0.001409 413.762085
[R_Toe1_03]
87 464.317810 0.000000 0.001088 0.013047 79.678459 0.013047 464.317810
88 464.317810 0.000000 0.001088 0.013202 79.799614 0.013202 464.317810
89 464.317810 0.000000 0.001088 0.013253 79.839310 0.013253 464.317810
[R_Toe2_02]
87 342.234741 -0.000954 0.000238 -0.005041 -73.582268 0.005843 342.234741
88 342.234741 -0.000954 0.000238 -0.003466 -73.505379 0.004660 342.234741
89 342.234741 -0.000954 0.000238 -0.001903 -73.428505 0.003489 342.234741
[R_Toe2_03]
87 420.210846 0.000715 -0.000268 -0.045809 88.614777 -0.049306 420.210846
88 420.210846 0.000715 -0.000268 -0.039983 88.421577 -0.043480 420.210846
89 420.210846 0.000715 -0.000268 -0.035429 88.228447 -0.038926 420.210846
[R_Toe3_02]
87 329.270355 -0.000477 -0.000954 0.001179 -79.195992 0.001179 329.270355
88 329.270355 -0.000477 -0.000954 0.001179 -79.181534 0.001179 329.270355
89 329.270355 -0.000477 -0.000954 0.001179 -79.167000 0.001179 329.270355
[R_Toe3_03]
87 439.137939 0.000238 0.001431 -179.991776 83.402481 -179.988266 439.137939
88 439.137939 0.000238 0.001431 -179.991730 83.429344 -179.988220 439.137939
89 439.137939 0.000238 0.001431 -179.991684 83.456352 -179.988174 439.137939
[Rear_Leg02]
87 1162.777710 -0.029802 0.005960 -11.431946 8.403268 -83.236763 1162.777710
88 1162.777710 -0.029802 0.005960 -12.310927 8.272187 -83.624619 1162.777710
89 1162.777710 -0.029802 0.005960 -13.188692 8.135238 -84.010239 1162.777710
[Rear_Leg03]
87 607.192505 -0.013351 -0.073195 0.006496 -0.002044 63.151123 607.192505
88 607.192505 -0.013351 -0.073195 0.006497 -0.002041 63.085350 607.192505
89 607.192505 -0.013351 -0.073195 0.006498 -0.002037 63.019600 607.192505
[Rear_Leg04]
87 995.874512 -0.020504 -0.011921 -0.040205 -0.015970 55.945000 995.874573
88 995.874512 -0.020504 -0.011921 -0.040208 -0.015963 55.964603 995.874573
89 995.874512 -0.020504 -0.011921 -0.040183 -0.016027 55.782745 995.874573
[Rear_Foot]
87 3096.176270 -0.067472 -0.041425 155.593185 69.958382 -16.722559 3096.176270
88 3096.176270 -0.067472 -0.041425 156.596313 69.167259 -15.358724 3096.176270
89 3096.176270 -0.067472 -0.041425 157.640396 68.276894 -13.942103 3096.176270
[planeAlignerCenter]
87 0.350077 0.966311 -838.790894 0.000009 0.000003 -179.999985 838.791565
88 0.350077 0.966311 -838.790894 0.000009 0.000003 -179.999985 838.791565
89 0.350077 0.966311 -838.790894 0.000009 0.000003 -179.999985 838.791565
[Rear_Toe1_01]
87 0.653352 83.966492 -371.173737 0.374009 25.413073 90.830902 380.553192
88 0.653352 83.966492 -371.173737 0.286087 26.551825 90.608337 380.553192
89 0.653352 83.966492 -371.173737 0.207863 27.511919 90.405334 380.553192
[Rear_Toe2_01]
87 178.200760 -294.826019 -362.060547 0.601840 49.965813 -70.696465 499.765686
88 178.200760 -294.826019 -362.060547 0.907631 50.851765 -70.140541 499.765686
89 178.200760 -294.826019 -362.060547 1.252761 51.538143 -69.569321 499.765686
[Rear_Toe3_01]
87 -153.359680 -308.780914 -362.060852 -2.157111 49.950367 -114.245689 499.952881
88 -153.359680 -308.780914 -362.060852 -2.212866 50.815960 -114.235649 499.952881
89 -153.359680 -308.780914 -362.060852 -2.248448 51.509815 -114.215683 499.952881
[planeLockWeightCenter]
87 -0.000062 0.000238 0.000000 -0.011814 -0.004373 -0.000015 0.000246
88 -0.000062 0.000238 0.000000 -0.011814 -0.004373 -0.000015 0.000246
89 -0.000062 0.000238 0.000000 -0.011814 -0.004373 -0.000015 0.000246
[Rear_Toe1_02]
87 379.707825 0.194073 0.000477 0.001333 -33.423325 0.001333 379.707855
88 379.707825 0.194073 0.000477 0.000772 -33.184307 0.003222 379.707855
89 379.707825 0.194073 0.000477 0.000222 -32.945278 0.005103 379.707855
[Rear_Toe1_03]
87 500.129700 0.165701 0.000119 -0.003253 66.524094 0.001038 500.129761
88 500.129700 0.165701 0.000119 -0.001966 63.823296 0.003068 500.129761
89 500.129700 0.165701 0.000119 -0.000988 61.120979 0.004799 500.129761
[Rear_Toe2_02]
87 340.494507 0.000238 -0.000954 0.001175 -84.663887 0.001175 340.494507
88 340.494507 0.000238 -0.000954 0.001175 -84.614464 0.001175 340.494507
89 340.494507 0.000238 -0.000954 0.001175 -84.564980 0.001175 340.494507
[Rear_Toe2_03]
87 433.103577 0.000000 0.000238 179.982941 82.108368 179.982941 433.103546
88 433.103577 0.000000 0.000238 179.982620 82.259094 179.982620 433.103546
89 433.103577 0.000000 0.000238 179.982269 82.409813 179.982269 433.103546
[Rear_Toe3_02]
87 340.494141 -0.000358 -0.000477 0.001175 -83.878593 0.001175 340.494171
88 340.494141 -0.000358 -0.000477 0.001175 -83.998741 0.001175 340.494171
89 340.494141 -0.000358 -0.000477 0.001175 -84.118835 0.001175 340.494171
[Rear_Toe3_03]
87 433.103577 0.001431 -0.000238 -179.990891 83.929695 -179.987396 433.103546
88 433.103577 0.001431 -0.000238 -179.991348 83.666985 -179.987854 433.103546
89 433.103577 0.001431 -0.000238 -179.991760 83.404266 -179.988266 433.103546
[Back_Bone]
87 1312.175781 -701.934692 0.000954 -2.893825 -0.616718 -84.560722 1488.125488
88 1312.175781 -701.934692 0.000954 -2.894543 -0.753113 -84.581932 1488.125488
89 1312.175781 -701.934692 0.000954 -2.895210 -0.889506 -84.603127 1488.125488
[Head]
87 1406.159424 809.709290 0.001431 -2.637668 1.397860 19.667830 1622.625488
88 1406.159424 809.709290 0.001431 -2.650053 1.341610 19.541744 1622.625488
89 1406.159424 809.709290 0.001431 -2.662316 1.285334 19.415682 1622.625488
[Motor_Bone]
87 1158.364380 -417.834747 0.000477 -2.663863 0.407331 -101.651749 1231.419434
88 1158.364380 -417.834747 0.000477 -2.661611 0.418590 -101.395134 1231.419434
89 1158.364380 -417.834747 0.000477 -2.659309 0.429837 -101.138535 1231.419434
[Ping_Mechanism]
87 1179.958374 -422.246704 16.997328 0.000103 -0.000053 82.120995 1253.348633
88 1178.449341 -422.191162 16.827684 0.000103 -0.000053 82.120995 1251.907104
89 1176.940430 -422.135620 16.658037 0.000103 -0.000053 82.120995 1250.465820
[BN_LookIK]
87 193.241119 1380.371704 -0.002861 0.000000 89.965736 -31.038179 1393.832153
88 193.241119 1380.371704 -0.002861 0.000000 89.965736 -31.038179 1393.832153
89 193.241119 1380.371704 -0.002861 0.000000 89.965736 -31.038179 1393.832153
[bottomMouth]
87 -435.092926 615.759399 -0.000954 -0.000022 0.000016 73.527184 753.966492
88 -435.092926 615.759399 -0.000954 -0.000022 0.000016 73.527184 753.966492
89 -435.092926 615.759399 -0.000954 -0.000022 0.000016 73.527184 753.966492
[L_Mouth01]
87 554.440979 7.658243 838.222046 150.204178 23.759130 109.605339 1005.027161
88 554.440979 7.658243 838.222046 150.204178 23.759130 109.605339 1005.027161
89 554.440979 7.658243 838.222046 150.204178 23.759130 109.605339 1005.027161
[L_mouthFront]
87 551.629089 934.514771 339.150421 0.000081 2.804060 79.119301 1136.941284
88 551.629089 934.514771 339.150421 0.000081 2.804060 79.119301 1136.941284
89 551.629089 934.514771 339.150421 0.000081 2.804060 79.119301 1136.941284
[mouthGun]
87 55.332661 1627.420898 0.000000 0.000023 0.000009 -11.038128 1628.361328
88 55.332661 1627.420898 0.000000 0.000023 0.000009 -11.038128 1628.361328
89 55.332661 1627.420898 0.000000 0.000023 0.000009 -11.038128 1628.361328
[R_Mouth01]
87 554.442383 7.659197 -838.223938 29.795891 -23.759109 109.605331 1005.029541
88 554.442383 7.659197 -838.223938 29.795891 -23.759109 109.605331 1005.029541
89 554.442383 7.659197 -838.223938 29.795891 -23.759109 109.605331 1005.029541
[R_mouthFront]
87 551.629089 934.514282 -339.151367 0.000029 -2.803930 79.119133 1136.941162
88 551.629089 934.514282 -339.151367 0.000029 -2.803930 79.119133 1136.941162
89 551.629089 934.514282 -339.151367 0.000029 -2.803930 79.119133 1136.941162
[TopMouth]
87 461.269867 -56.106091 -0.008583 -0.000059 -0.000268 92.025169 464.669525
88 461.269867 -56.106091 -0.008583 -0.000059 -0.000268 92.025169 464.669525
89 461.269867 -56.106091 -0.008583 -0.000059 -0.000268 92.025169 464.669525
[weapon_bone]
87 -987.239868 1448.372803 0.001431 0.000000 89.965736 -31.038221 1752.833740
88 -987.239868 1448.372803 0.001431 0.000000 89.965736 -31.038221 1752.833740
89 -987.239868 1448.372803 0.001431 0.000000 89.965736 -31.038221 1752.833740
